<svg xmlns="http://www.w3.org/2000/svg" viewBox="0 0 300 74" role="img" aria-labelledby="title">
  <title>Cisco Networking Academy logo</title>
  <g fill="#1ba0d7">
    <rect x="10" y="14" width="5" height="13" rx="2.5"/>
    <rect x="20" y="8" width="5" height="19" rx="2.5"/>
    <rect x="30" y="3" width="5" height="24" rx="2.5"/>
    <rect x="40" y="0" width="5" height="27" rx="2.5"/>
    <rect x="50" y="6" width="5" height="21" rx="2.5"/>
    <rect x="60" y="11" width="5" height="16" rx="2.5"/>
    <rect x="70" y="6" width="5" height="21" rx="2.5"/>
    <rect x="80" y="0" width="5" height="27" rx="2.5"/>
    <rect x="90" y="3" width="5" height="24" rx="2.5"/>
    <rect x="100" y="8" width="5" height="19" rx="2.5"/>
    <rect x="110" y="14" width="5" height="13" rx="2.5"/>
  </g>
  <text x="62" y="47" text-anchor="middle" font-family="Arial, Helvetica, sans-serif" font-size="20" font-weight="700" letter-spacing="0.14em" fill="#1ba0d7">CISCO</text>
  <rect x="128" y="14" width="2" height="38" rx="1" fill="#1ba0d7"/>
  <text x="142" y="30" font-family="Arial, Helvetica, sans-serif" font-size="16" font-weight="700" fill="#1ba0d7">Networking</text>
  <text x="142" y="49" font-family="Arial, Helvetica, sans-serif" font-size="16" font-weight="700" fill="#1ba0d7">Academy</text>
</svg>
